# xmcd
#
# Track frame offsets:
# 151
# 19823
# 48076
# 70850
# 90956
# 114237
# 132255
# 152104
# 174458
# 203699
# 224768
# 250881
# 273861
# 302277
#
# Disc length: 4445 seconds
#
#
# Revision: 0
# Processed by: cddbd v1.5.2PL0 Copyright (c) Steve Scherf et al.
# Submitted via: FreeRIP 2.951 
#
DISCID=b3115b0e
DTITLE=Free - Live 1970 - Granada TV and Radio Hutset
DYEAR=1970
DGENRE=Rock
TTITLE0=Ride On Pony
TTITLE1=Mr. Big
TTITLE2=Songs Of Yesterday
TTITLE3=I'll Be Creepin
TTITLE4=All Right Now
TTITLE5=The Stealer
TTITLE6=Fire And Water
TTITLE7=Ride On Pony
TTITLE8=Heavy Load
TTITLE9=Woman
TTITLE10=Love You So
TTITLE11=All Right Now
TTITLE12=Be My Friend
TTITLE13=Mr. Big
EXTD=Granada TV - July 1970 - Full TV Show\nRadio Hutset - Stockholm, Sweden - December 1970 - Full Radio SHow
EXTT0=
EXTT1=
EXTT2=
EXTT3=
EXTT4=
EXTT5=
EXTT6=
EXTT7=
EXTT8=
EXTT9=
EXTT10=
EXTT11=
EXTT12=
EXTT13=
PLAYORDER=
